<svg xmlns="http://www.w3.org/2000/svg" fill="#f8ced0" viewBox="0 0 474.4 474.4"><path d="M426.1 265.9c-2-2-5.1-2-7.1 0l-38.6 38.6 -15.9-15.9c29-30.8 44.9-70.8 44.9-113.2 0-44.1-17.2-85.6-48.4-116.8 -31.2-31.2-72.7-48.4-116.8-48.4 -42.5 0-82.5 15.9-113.2 44.9l-15.9-15.9 30.7-30.7c2-2 2-5.1 0-7.1 -2-2-5.1-2-7.1 0l-34.3 34.3c-37.3 37.3-57.9 86.9-57.9 139.7 0 52.8 20.5 102.4 57.9 139.7 31.8 31.8 72.6 51.4 116.6 56.5v25.4h-17.2c-1.9 0-3.7 1.1-4.5 2.8l-9.7 20.2h-44.9c-2.8 0-5 2.2-5 5v44.3c0 2.8 2.2 5 5 5h206.9c2.8 0 5-2.2 5-5V425c0-2.8-2.2-5-5-5h-44.9l-9.7-20.2c-0.8-1.7-2.6-2.8-4.5-2.8h-17.2v-26.5c40.9-6.5 78.6-25.6 108.4-55.4l42.1-42.1C428.1 271.1 428.1 267.9 426.1 265.9zM131.3 69.5l106 106 -49.5 49.5c-28-28.8-48.8-61-58.8-91.2C119.7 106.2 120.6 83.6 131.3 69.5zM244.3 182.5L350.3 288.4c-7.6 5.7-17.6 8.7-29.9 8.7 -35.8 0-84.7-25.4-125.6-65.1L244.3 182.5zM357.4 281.4L251.4 175.4l49.5-49.5c28 28.8 48.8 61 58.8 91.2C368.9 244.7 368 267.2 357.4 281.4zM244.3 168.4L138.4 62.4c7.6-5.7 17.6-8.7 29.9-8.7 35.8 0 84.7 25.4 125.6 65.1L244.3 168.4zM119.4 137c10.5 31.6 32.2 65.2 61.2 95.1l-49.5 49.5c-48.9-52.2-55-130.1-18.2-188.7C111.8 105.8 114 120.7 119.4 137zM187.7 239.1c43.3 42 93.8 68 132.7 68 2.3 0 4.5-0.1 6.6-0.3 -24.5 15.5-53 23.8-82.7 23.8 -39.8 0-77.3-14.9-106.1-42L187.7 239.1zM375.8 258.1c1.1-12.9-1.1-27.8-6.5-44.2 -10.5-31.6-32.2-65.2-61.2-95.1l49.5-49.5c27.1 28.9 42 66.4 42 106.1C399.5 205.1 391.2 233.5 375.8 258.1zM350.5 62.2l-49.5 49.5c-43.3-42-93.8-68-132.7-68 -2.3 0-4.5 0.1-6.6 0.3 24.5-15.5 53-23.8 82.7-23.8C284.1 20.2 321.6 35.1 350.5 62.2zM56.8 175.4c0-48.4 18.2-94 51.4-129l15.8 15.8c-60.9 64.7-59.8 166.8 3.5 230 31.2 31.2 72.7 48.4 116.8 48.4 42.5 0 82.5-15.9 113.2-44.9l15.8 15.8c-35 33.2-80.6 51.4-129 51.4 -50.1 0-97.2-19.5-132.6-54.9C76.3 272.6 56.8 225.5 56.8 175.4zM346.9 464.4h-15.9V430h15.9V464.4zM295.9 420h-3.1c-2.8 0-5 2.2-5 5s2.2 5 5 5h11.1 17.2v34.3H150V430h43 60.8c2.8 0 5-2.2 5-5s-2.2-5-5-5h-52.8l6.3-13h19c0 0 0 0 0 0s0 0 0 0h44.3c0 0 0 0 0 0s0 0 0 0h19L295.9 420zM265.6 397h-34.3v-24.5c4.3 0.3 8.7 0.4 13 0.4 7.2 0 14.3-0.4 21.3-1.1V397z"/></svg>