<svg xmlns="http://www.w3.org/2000/svg" viewBox="-951 402 200 200"><style>.a{fill:#D9332E;}</style><path d="M-769.4 450.9L-769.4 450.9c-0.2-0.1-0.3-0.2-0.5-0.2 -0.1-0.1-0.2-0.1-0.3-0.2l-106.3-43.1c-4.3-1.7-8.1-0.7-10.2 2.7 -1.7 2.9-1.6 6.5 0.3 8l0.2 0.2 0.2 0.1 8.4 3.4L-921 528.5c-4.8-2-7.9-3.2-8.5-3.4l-0.2-0.1 -0.2 0c-2.4-0.2-5.1 2.3-5.8 5.6 -0.9 3.9 1.1 7.3 5.4 9l106.3 43.1c0.1 0.1 0.3 0.1 0.4 0.2 0.1 0.1 0.3 0.1 0.4 0.2l0-0.1c0.6 0.2 1.2 0.3 1.9 0.3 5 0 7.5-6.1 8.5-8.7l45-110.5c1.3-3.2 1.9-5.6 1.8-7.6C-766.1 453.9-767.3 452-769.4 450.9L-769.4 450.9zM-884.1 411.7c0.7-1.2 2.6-3 6.4-1.5l100.6 40.8c0 0-0.1 0-0.1 0.1 -2.4 1.7-3.2 4.8-3.4 7 -14.1-5.7-97.7-39.8-104-42.3C-885 415.1-885.1 413.3-884.1 411.7zM-835.5 438.9c-1 0.5-2.1 1.1-3.3 1.9 -4.1 3-5.9 6.7-5 10.7 0.9 4.6 4.3 8.6 7.5 12.5 3.2 3.9 6.2 7.6 5.7 10.7 -0.3 1.6-1.4 3.1-3.6 4.5 -5.3 3.4-9.3 1.2-13.5-1.2 -4.9-2.8-10.5-5.9-17.8 1.5 -6.4 6.5-12.9 9.6-18.9 8.8 -5-0.6-9.4-4-13-9.8l22.7-55.6L-835.5 438.9zM-932.8 531.3c0.4-1.9 1.8-3.1 2.5-3.2 6.2 2.5 90 36.3 104.1 42 -1.3 1.7-3 4.5-2.4 7.4 0 0 0 0.1 0 0.1l-100.6-40.8C-933.1 535.2-933.1 532.7-932.8 531.3zM-815.7 573.5c-2.7 6.6-4.9 7.2-6.8 6.6 -1.9-0.8-3-1.9-3.2-3.1 -0.5-2.4 2.1-5.4 3.1-6.3l1.7-1.6 -2.2-0.9 -13-5.3c3-2.7 9.4-9.4 9.4-15 0-2.1-0.9-3.9-2.6-5.3 -2.1-1.7-4.8-3.2-7.6-4.7 -8.1-4.5-15.8-8.7-10.5-18.6 1.4-2.7 2.7-4.1 3.6-4.3 1.1-0.2 2.6 1.4 4.4 3.3 3.7 3.9 9.4 9.8 20.4 10.2 12.4 0.4 21.5-6.8 27.1-13.1L-815.7 573.5zM-770.6 462.9l-6.5 15.9 -10-4.1c-0.8-0.3-1.7 0.1-2 0.8 -0.3 0.8 0.1 1.7 0.8 2 0 0 0 0 0 0l10 4.1 -1.1 2.7 -3.9-1.6c-0.8-0.3-1.7 0.1-2 0.8 -0.3 0.8 0.1 1.7 0.8 2l3.9 1.6 -8.5 21c-3.9 5.9-14.1 18.8-29.9 18.3 -10.1-0.3-15.2-5.7-19-9.6 -2.2-2.3-4-4.2-6.2-3.9 -1.8 0.2-3.3 1.8-5.2 5.3 -6.2 11.6 3.1 16.8 11.3 21.3 2.7 1.5 5.3 2.9 7.3 4.5 1.3 1 1.9 2.3 1.9 3.8 0 5.3-7.2 12.2-9.5 14.2l-80-32.3 19.9-48.8c3.8 5.6 8.5 8.9 13.7 9.5 0.7 0.1 1.4 0.1 2 0.1 6 0 12.4-3.3 18.5-9.6 6.1-6.3 10.4-3.9 15.3-1.1 4.4 2.4 9.3 5.2 15.6 1.1 2.7-1.8 4.2-3.7 4.5-5.9 0.6-4-2.7-8-6.2-12.3 -3-3.7-6.2-7.6-7.1-11.6 -1.3-6.5 6.1-10.1 8.9-11.2l53.1 21.6 2.2 0.9 -0.1-2.4c-0.1-1.4 0.2-5.3 2.2-6.7 1-0.7 2.5-0.7 4.4-0.1 1.3 0.6 1.9 1.6 2 3.1C-769 458.1-769.5 460.1-770.6 462.9L-770.6 462.9z" fill="#FFF"/><path d="M-786.7 591.9l-3.2-0.8 1.8-2.8c0.3-0.5 0.1-1.1-0.3-1.4 -0.5-0.3-1.1-0.1-1.4 0.3l-1.8 2.8 -2.1-2.6c-0.4-0.4-1-0.5-1.4-0.2 -0.4 0.3-0.5 1-0.2 1.4 0 0 0 0 0 0l2.1 2.6 -3.1 1.2c-0.5 0.2-0.8 0.8-0.6 1.3 0.2 0.5 0.8 0.8 1.3 0.6 0 0 0 0 0 0l3.1-1.2 0.2 3.3c0 0.5 0.5 0.9 1 0.9 0 0 0 0 0.1 0 0.6 0 1-0.5 0.9-1.1 0 0 0 0 0 0l-0.2-3.3 3.3 0.8c0.5 0.1 1.1-0.2 1.2-0.7C-785.8 592.6-786.2 592.1-786.7 591.9z" class="a"/><path d="M-824.1 501.8c-5.2-2.1-11 0.4-13.1 5.5 -1.7 4.2 1.4 14.8 2.5 18.3 0.2 0.6 0.8 0.9 1.3 0.7 0.1 0 0.1 0 0.2-0.1 3.3-1.7 12.9-7.1 14.6-11.4C-816.4 509.8-818.9 503.9-824.1 501.8L-824.1 501.8zM-823.2 513c-1 2.6-4 3.8-6.5 2.7 -2.6-1-3.8-3.9-2.8-6.5 0 0 0 0 0 0 1-2.6 4-3.8 6.5-2.7C-823.4 507.5-822.2 510.4-823.2 513 -823.2 513-823.2 513-823.2 513L-823.2 513z" class="a"/><path d="M-865 454.8c0.5 0 1 0 1.5 0.1 0.3 0 0.5-0.2 0.5-0.5 0-0.3-0.2-0.5-0.5-0.5 -0.5 0-1-0.1-1.6-0.1h0c-0.3 0-0.5 0.2-0.5 0.5C-865.5 454.6-865.3 454.8-865 454.8z" class="a"/><path d="M-879.8 510.7c0.3 0.1 0.6-0.1 0.6-0.3 0 0 0 0 0 0 0.3-0.9 0.7-1.9 1.1-2.7 0.1-0.2 0-0.6-0.2-0.7 -0.2-0.1-0.6 0-0.7 0.2 0 0 0 0 0 0 -0.4 0.9-0.8 1.9-1.1 2.9C-880.2 510.4-880.1 510.7-879.8 510.7z" class="a"/><path d="M-874.4 530.3c-0.2-0.2-0.5-0.2-0.7 0 -0.2 0.2-0.2 0.5 0 0.7 0 0 0 0 0 0 0.7 0.7 1.5 1.4 2.3 2 0.2 0.2 0.5 0.1 0.7-0.1 0 0 0 0 0 0 0.2-0.2 0.1-0.5-0.1-0.7 0 0 0 0 0 0C-873 531.6-873.7 531-874.4 530.3z" class="a"/><path d="M-878.5 524.8c-0.4-0.9-0.7-1.8-1-2.8 -0.1-0.3-0.4-0.4-0.6-0.3 -0.2 0.1-0.4 0.3-0.3 0.6 0.3 1 0.6 2 1.1 2.9 0.1 0.2 0.4 0.3 0.7 0.2C-878.6 525.3-878.5 525-878.5 524.8z" class="a"/><path d="M-876.3 502.9c-0.6 0.8-1.2 1.7-1.8 2.5 -0.1 0.2-0.1 0.6 0.2 0.7 0.1 0 0.2 0.1 0.3 0.1 0.2 0 0.3-0.1 0.4-0.2 0.5-0.8 1.1-1.7 1.7-2.4 0.2-0.2 0.1-0.5-0.1-0.7 0 0 0 0 0 0C-875.8 502.6-876.1 502.7-876.3 502.9L-876.3 502.9z" class="a"/><path d="M-876.3 528.3c-0.5-0.6-0.9-1.1-1.3-1.7 -0.2-0.2-0.5-0.3-0.7-0.1 -0.2 0.1-0.3 0.4-0.2 0.7 0.4 0.7 0.9 1.3 1.4 1.9 0.2 0.2 0.3 0.4 0.5 0.6 0.2 0.2 0.5 0.2 0.7 0 0 0 0 0 0 0 0.2-0.2 0.2-0.5 0-0.7 0 0 0 0 0 0C-876 528.7-876.2 528.5-876.3 528.3L-876.3 528.3z" class="a"/><path d="M-880.4 520.7c0.3 0 0.5-0.3 0.4-0.6 -0.2-1-0.2-2-0.2-2.9 0-0.3-0.2-0.5-0.5-0.5h0c-0.3 0-0.5 0.2-0.5 0.5 0 1 0.1 2.1 0.3 3.1C-880.9 520.6-880.7 520.8-880.4 520.7 -880.4 520.7-880.4 520.7-880.4 520.7L-880.4 520.7z" class="a"/><path d="M-847.5 467.5c0.3 0.9 0.5 1.9 0.7 2.9 0 0.3 0.3 0.5 0.6 0.4 0.3 0 0.5-0.3 0.4-0.6 -0.2-1-0.4-2-0.7-3 -0.1-0.3-0.4-0.4-0.7-0.3C-847.4 467-847.6 467.3-847.5 467.5z" class="a"/><path d="M-848.2 465.7c0.1 0.3 0.4 0.4 0.7 0.3 0 0 0 0 0 0 0.3-0.1 0.4-0.4 0.3-0.7 -0.4-0.9-0.9-1.9-1.5-2.7 -0.2-0.2-0.5-0.3-0.7-0.1s-0.3 0.5-0.1 0.7C-849.1 463.9-848.6 464.8-848.2 465.7z" class="a"/><path d="M-846.7 472.3c0 1 0 2-0.1 2.9 0 0.3 0.2 0.5 0.5 0.6 0.3 0 0.5-0.2 0.5-0.4 0.1-1 0.2-2.1 0.1-3.1 0-0.3-0.2-0.5-0.5-0.5C-846.4 471.8-846.7 472-846.7 472.3 -846.7 472.3-846.7 472.3-846.7 472.3L-846.7 472.3z" class="a"/><path d="M-861.5 494.7c0.1 0 0.2 0 0.2-0.1 0.9-0.5 1.8-1 2.6-1.5 0.2-0.1 0.3-0.5 0.2-0.7s-0.5-0.3-0.7-0.2c0 0 0 0 0 0 -0.8 0.5-1.7 1-2.6 1.5 -0.2 0.1-0.3 0.4-0.2 0.7C-861.9 494.6-861.7 494.7-861.5 494.7z" class="a"/><path d="M-850.8 461.5c0.2 0.2 0.5 0.2 0.7 0 0.2-0.2 0.2-0.5 0.1-0.7 -0.7-0.8-1.4-1.5-2.2-2.2 -0.2-0.2-0.5-0.2-0.7 0 -0.2 0.2-0.2 0.5 0 0.7 0 0 0 0 0 0C-852.1 460.1-851.4 460.8-850.8 461.5L-850.8 461.5z" class="a"/><path d="M-861.6 455.2c1 0.2 1.9 0.4 2.8 0.8 0.3 0.1 0.6 0 0.6-0.3 0.1-0.3 0-0.6-0.3-0.6 0 0 0 0 0 0 -1-0.4-2-0.6-3-0.8 -0.3-0.1-0.5 0.1-0.6 0.4C-862 454.8-861.8 455.1-861.6 455.2L-861.6 455.2z" class="a"/><path d="M-856.9 456.7c0.9 0.4 1.7 0.9 2.5 1.5 0.2 0.2 0.5 0.1 0.7-0.1 0.2-0.2 0.1-0.5-0.1-0.7 0 0 0 0 0 0 -0.8-0.6-1.7-1.1-2.7-1.6 -0.3-0.1-0.6 0-0.7 0.2C-857.3 456.3-857.2 456.6-856.9 456.7L-856.9 456.7z" class="a"/><path d="M-880.7 515.7c0.3 0 0.5-0.2 0.5-0.5 0.1-1 0.2-2 0.5-2.9 0.1-0.3-0.1-0.5-0.4-0.6 0 0 0 0 0 0 -0.3-0.1-0.5 0.1-0.6 0.4 -0.2 1-0.4 2-0.5 3.1C-881.2 515.4-880.9 515.7-880.7 515.7L-880.7 515.7z" class="a"/><path d="M-848.7 535.4c-1 0.3-1.9 0.6-2.9 0.8 -0.3 0.1-0.4 0.3-0.4 0.6s0.3 0.4 0.6 0.4c0 0 0 0 0 0 1-0.2 2-0.5 3-0.8 0.3-0.1 0.4-0.4 0.3-0.6C-848.2 535.4-848.5 535.3-848.7 535.4z" class="a"/><path d="M-848.2 481.5c-0.2-0.1-0.6 0-0.7 0.2 -0.4 0.9-1 1.7-1.5 2.5 -0.2 0.2-0.1 0.5 0.1 0.7 0.1 0.1 0.2 0.1 0.3 0.1 0.2 0 0.3-0.1 0.4-0.2 0.6-0.9 1.1-1.7 1.6-2.6C-847.9 482-848 481.7-848.2 481.5z" class="a"/><path d="M-850.9 485.8c-0.2-0.2-0.5-0.1-0.7 0.1 -0.6 0.8-1.3 1.5-2 2.2 -0.2 0.2-0.2 0.5 0 0.7 0.2 0.2 0.5 0.2 0.7 0 0.7-0.7 1.4-1.5 2.1-2.3C-850.7 486.3-850.7 485.9-850.9 485.8 -850.9 485.8-850.9 485.8-850.9 485.8L-850.9 485.8z" class="a"/><path d="M-839.7 531.2c-0.8 0.5-1.7 1-2.6 1.5 -0.2 0.1-0.3 0.4-0.2 0.7s0.4 0.3 0.7 0.2c0 0 0 0 0 0 0.9-0.5 1.8-1 2.7-1.5 0.2-0.1 0.3-0.5 0.2-0.7 0 0 0 0 0 0C-839.2 531.1-839.5 531-839.7 531.2L-839.7 531.2z" class="a"/><path d="M-872.6 499.3c-0.8 0.6-1.6 1.3-2.3 2.1 -0.2 0.2-0.2 0.5 0 0.7 0.2 0.2 0.5 0.2 0.7 0l0 0c0.7-0.7 1.4-1.4 2.2-2 0.2-0.2 0.3-0.5 0.1-0.7 0 0 0 0 0 0C-872 499.1-872.3 499.1-872.6 499.3L-872.6 499.3z" class="a"/><path d="M-853.6 536.6c-1 0.2-2 0.3-3 0.4 -0.3 0-0.5 0.3-0.5 0.6 0 0.3 0.2 0.5 0.5 0.5l0 0c1-0.1 2-0.2 3.1-0.4 0.3 0 0.5-0.3 0.4-0.6C-853 536.7-853.3 536.6-853.6 536.6L-853.6 536.6z" class="a"/><path d="M-844.1 533.5c-0.9 0.4-1.8 0.8-2.8 1.2 -0.3 0.1-0.4 0.4-0.3 0.7 0.1 0.2 0.3 0.3 0.5 0.3 0.1 0 0.1 0 0.2 0 0.9-0.4 1.9-0.8 2.8-1.2 0.3-0.1 0.4-0.4 0.2-0.7 0 0 0 0 0 0C-843.6 533.5-843.9 533.4-844.1 533.5z" class="a"/><path d="M-846.2 477.4c0.1-0.3-0.1-0.5-0.4-0.6 -0.3-0.1-0.5 0.1-0.6 0.4 -0.2 1-0.5 1.9-0.9 2.8 -0.1 0.3 0 0.6 0.3 0.7 0.1 0 0.1 0 0.2 0 0.2 0 0.4-0.1 0.5-0.3C-846.7 479.4-846.4 478.4-846.2 477.4z" class="a"/><path d="M-854.5 490.1c0.2-0.2 0.2-0.5 0.1-0.7s-0.5-0.2-0.7-0.1l0 0c-0.7 0.6-1.5 1.2-2.4 1.8 -0.2 0.2-0.3 0.5-0.1 0.7 0.1 0.1 0.3 0.2 0.4 0.2 0.1 0 0.2 0 0.3-0.1C-856.1 491.4-855.3 490.8-854.5 490.1z" class="a"/><path d="M-868.1 496.7c-1 0.4-1.9 0.9-2.8 1.4 -0.2 0.1-0.3 0.5-0.2 0.7 0.1 0.2 0.5 0.3 0.7 0.2 0 0 0 0 0 0 0.8-0.5 1.7-1 2.6-1.4 0.3-0.1 0.4-0.4 0.3-0.7C-867.6 496.7-867.9 496.6-868.1 496.7 -868.1 496.7-868.1 496.7-868.1 496.7L-868.1 496.7z" class="a"/><path d="M-868 534.8c-0.9-0.4-1.7-0.9-2.6-1.5 -0.2-0.2-0.5-0.1-0.7 0.1 -0.2 0.2-0.1 0.5 0.1 0.7 0 0 0 0 0 0 0.9 0.6 1.8 1.1 2.7 1.5 0.3 0.1 0.6 0 0.7-0.2C-867.7 535.3-867.8 534.9-868 534.8 -868 534.8-868 534.8-868 534.8L-868 534.8z" class="a"/><path d="M-863.4 536.4c-1-0.2-1.9-0.5-2.8-0.8 -0.3-0.1-0.6 0-0.7 0.3 -0.1 0.3 0 0.6 0.3 0.7 0 0 0 0 0 0 1 0.4 2 0.7 3 0.9 0.3 0.1 0.5-0.1 0.6-0.4C-862.9 536.8-863.1 536.5-863.4 536.4 -863.4 536.4-863.4 536.4-863.4 536.4L-863.4 536.4z" class="a"/><path d="M-858.5 537c-1 0-2-0.1-3-0.2 -0.3-0.1-0.5 0.1-0.6 0.4 -0.1 0.3 0.1 0.5 0.4 0.6 0 0 0 0 0 0 1 0.1 2 0.2 3.1 0.2h0c0.3 0 0.5-0.2 0.5-0.5C-858 537.2-858.2 537-858.5 537L-858.5 537z" class="a"/><path d="M-863.5 494.7c-0.9 0.4-1.8 0.8-2.7 1.2 -0.3 0.1-0.4 0.4-0.3 0.7 0.1 0.2 0.3 0.3 0.5 0.3 0.1 0 0.1 0 0.2 0 1-0.4 1.9-0.8 2.8-1.3 0.3-0.1 0.4-0.4 0.2-0.7C-863 494.7-863.3 494.6-863.5 494.7L-863.5 494.7 -863.5 494.7z" class="a"/><path d="M-836.8 529.2c-0.4 0.3-0.8 0.6-1.2 0.9 -0.2 0.2-0.3 0.5-0.1 0.7 0.2 0.2 0.5 0.3 0.7 0.1l0 0c0.8-0.6 1.3-0.9 1.3-0.9 0.2-0.2 0.3-0.5 0.1-0.7C-836.2 529-836.5 529-836.8 529.2 -836.8 529.2-836.8 529.2-836.8 529.2z" class="a"/></svg>
 